<mxfile host="app.diagrams.net" modified="2021-04-12T07:40:20.348Z" agent="5.0 (Windows NT 10.0; Win64; x64) AppleWebKit/537.36 (KHTML, like Gecko) Chrome/89.0.4389.114 Safari/537.36" etag="AU8iwxoi0Lz573VDnoO4" version="14.5.1" type="github">
  <diagram id="P6N9geGXnwmouXDZ3Ctz" name="Page-1">
    <mxGraphModel dx="865" dy="457" grid="1" gridSize="10" guides="1" tooltips="1" connect="1" arrows="1" fold="1" page="1" pageScale="1" pageWidth="850" pageHeight="1100" math="0" shadow="0">
      <root>
        <mxCell id="0" />
        <mxCell id="1" parent="0" />
        <mxCell id="uX33xKVnWNZyPO1dEY4i-22" value="" style="edgeStyle=orthogonalEdgeStyle;rounded=0;orthogonalLoop=1;jettySize=auto;html=1;" edge="1" parent="1" source="uX33xKVnWNZyPO1dEY4i-1" target="uX33xKVnWNZyPO1dEY4i-19">
          <mxGeometry relative="1" as="geometry" />
        </mxCell>
        <mxCell id="uX33xKVnWNZyPO1dEY4i-1" value="开始" style="strokeWidth=2;html=1;shape=mxgraph.flowchart.start_1;whiteSpace=wrap;" vertex="1" parent="1">
          <mxGeometry x="241" y="40" width="120" height="50" as="geometry" />
        </mxCell>
        <mxCell id="uX33xKVnWNZyPO1dEY4i-2" value="结束" style="strokeWidth=2;html=1;shape=mxgraph.flowchart.start_1;whiteSpace=wrap;" vertex="1" parent="1">
          <mxGeometry x="401" y="660" width="120" height="50" as="geometry" />
        </mxCell>
        <mxCell id="uX33xKVnWNZyPO1dEY4i-21" value="" style="edgeStyle=orthogonalEdgeStyle;rounded=0;orthogonalLoop=1;jettySize=auto;html=1;" edge="1" parent="1" source="uX33xKVnWNZyPO1dEY4i-3" target="uX33xKVnWNZyPO1dEY4i-4">
          <mxGeometry relative="1" as="geometry" />
        </mxCell>
        <mxCell id="uX33xKVnWNZyPO1dEY4i-3" value="输入一个&lt;br&gt;运算符或者运算数a" style="shape=parallelogram;html=1;strokeWidth=2;perimeter=parallelogramPerimeter;whiteSpace=wrap;rounded=1;arcSize=12;size=0.23;" vertex="1" parent="1">
          <mxGeometry x="241" y="210" width="120" height="50" as="geometry" />
        </mxCell>
        <mxCell id="uX33xKVnWNZyPO1dEY4i-6" value="N" style="edgeStyle=orthogonalEdgeStyle;rounded=0;orthogonalLoop=1;jettySize=auto;html=1;" edge="1" parent="1" source="uX33xKVnWNZyPO1dEY4i-4" target="uX33xKVnWNZyPO1dEY4i-5">
          <mxGeometry relative="1" as="geometry" />
        </mxCell>
        <mxCell id="uX33xKVnWNZyPO1dEY4i-4" value="a == ’+‘" style="strokeWidth=2;html=1;shape=mxgraph.flowchart.decision;whiteSpace=wrap;" vertex="1" parent="1">
          <mxGeometry x="241" y="300" width="120" height="50" as="geometry" />
        </mxCell>
        <mxCell id="uX33xKVnWNZyPO1dEY4i-8" value="N" style="edgeStyle=orthogonalEdgeStyle;rounded=0;orthogonalLoop=1;jettySize=auto;html=1;" edge="1" parent="1" source="uX33xKVnWNZyPO1dEY4i-5" target="uX33xKVnWNZyPO1dEY4i-7">
          <mxGeometry relative="1" as="geometry" />
        </mxCell>
        <mxCell id="uX33xKVnWNZyPO1dEY4i-5" value="a == ’-‘" style="strokeWidth=2;html=1;shape=mxgraph.flowchart.decision;whiteSpace=wrap;" vertex="1" parent="1">
          <mxGeometry x="241" y="390" width="120" height="50" as="geometry" />
        </mxCell>
        <mxCell id="uX33xKVnWNZyPO1dEY4i-10" value="N" style="edgeStyle=orthogonalEdgeStyle;rounded=0;orthogonalLoop=1;jettySize=auto;html=1;" edge="1" parent="1" source="uX33xKVnWNZyPO1dEY4i-7" target="uX33xKVnWNZyPO1dEY4i-9">
          <mxGeometry relative="1" as="geometry" />
        </mxCell>
        <mxCell id="uX33xKVnWNZyPO1dEY4i-7" value="a == ’*‘" style="strokeWidth=2;html=1;shape=mxgraph.flowchart.decision;whiteSpace=wrap;" vertex="1" parent="1">
          <mxGeometry x="241" y="480" width="120" height="50" as="geometry" />
        </mxCell>
        <mxCell id="uX33xKVnWNZyPO1dEY4i-17" value="N" style="edgeStyle=orthogonalEdgeStyle;rounded=0;orthogonalLoop=1;jettySize=auto;html=1;" edge="1" parent="1" source="uX33xKVnWNZyPO1dEY4i-9" target="uX33xKVnWNZyPO1dEY4i-11">
          <mxGeometry relative="1" as="geometry" />
        </mxCell>
        <mxCell id="uX33xKVnWNZyPO1dEY4i-9" value="a == ’/‘" style="strokeWidth=2;html=1;shape=mxgraph.flowchart.decision;whiteSpace=wrap;" vertex="1" parent="1">
          <mxGeometry x="241" y="570" width="120" height="50" as="geometry" />
        </mxCell>
        <mxCell id="uX33xKVnWNZyPO1dEY4i-23" value="" style="edgeStyle=orthogonalEdgeStyle;rounded=0;orthogonalLoop=1;jettySize=auto;html=1;" edge="1" parent="1" source="uX33xKVnWNZyPO1dEY4i-11" target="uX33xKVnWNZyPO1dEY4i-2">
          <mxGeometry relative="1" as="geometry" />
        </mxCell>
        <mxCell id="uX33xKVnWNZyPO1dEY4i-11" value="&amp;nbsp;return atof(a)" style="rounded=1;whiteSpace=wrap;html=1;strokeWidth=2;" vertex="1" parent="1">
          <mxGeometry x="401" y="570" width="120" height="50" as="geometry" />
        </mxCell>
        <mxCell id="uX33xKVnWNZyPO1dEY4i-13" value="Y" style="endArrow=classic;html=1;exitX=0;exitY=0.5;exitDx=0;exitDy=0;exitPerimeter=0;entryX=0;entryY=0.5;entryDx=0;entryDy=0;entryPerimeter=0;" edge="1" parent="1" source="uX33xKVnWNZyPO1dEY4i-9" target="uX33xKVnWNZyPO1dEY4i-19">
          <mxGeometry width="50" height="50" relative="1" as="geometry">
            <mxPoint x="241" y="590" as="sourcePoint" />
            <mxPoint x="141" y="560" as="targetPoint" />
            <Array as="points">
              <mxPoint x="141" y="595" />
              <mxPoint x="141" y="145" />
            </Array>
          </mxGeometry>
        </mxCell>
        <mxCell id="uX33xKVnWNZyPO1dEY4i-14" value="Y" style="endArrow=classic;html=1;exitX=0;exitY=0.5;exitDx=0;exitDy=0;exitPerimeter=0;entryX=0;entryY=0.5;entryDx=0;entryDy=0;entryPerimeter=0;" edge="1" parent="1" source="uX33xKVnWNZyPO1dEY4i-7" target="uX33xKVnWNZyPO1dEY4i-19">
          <mxGeometry width="50" height="50" relative="1" as="geometry">
            <mxPoint x="401" y="480" as="sourcePoint" />
            <mxPoint x="451" y="430" as="targetPoint" />
            <Array as="points">
              <mxPoint x="161" y="505" />
              <mxPoint x="161" y="145" />
            </Array>
          </mxGeometry>
        </mxCell>
        <mxCell id="uX33xKVnWNZyPO1dEY4i-15" value="Y" style="endArrow=classic;html=1;exitX=0;exitY=0.5;exitDx=0;exitDy=0;exitPerimeter=0;entryX=0;entryY=0.5;entryDx=0;entryDy=0;entryPerimeter=0;" edge="1" parent="1" source="uX33xKVnWNZyPO1dEY4i-5" target="uX33xKVnWNZyPO1dEY4i-19">
          <mxGeometry width="50" height="50" relative="1" as="geometry">
            <mxPoint x="401" y="480" as="sourcePoint" />
            <mxPoint x="241" y="150" as="targetPoint" />
            <Array as="points">
              <mxPoint x="181" y="415" />
              <mxPoint x="181" y="145" />
            </Array>
          </mxGeometry>
        </mxCell>
        <mxCell id="uX33xKVnWNZyPO1dEY4i-16" value="Y" style="endArrow=classic;html=1;exitX=0;exitY=0.5;exitDx=0;exitDy=0;exitPerimeter=0;entryX=0;entryY=0.5;entryDx=0;entryDy=0;entryPerimeter=0;" edge="1" parent="1" source="uX33xKVnWNZyPO1dEY4i-4" target="uX33xKVnWNZyPO1dEY4i-19">
          <mxGeometry width="50" height="50" relative="1" as="geometry">
            <mxPoint x="401" y="480" as="sourcePoint" />
            <mxPoint x="241" y="180" as="targetPoint" />
            <Array as="points">
              <mxPoint x="201" y="325" />
              <mxPoint x="201" y="145" />
            </Array>
          </mxGeometry>
        </mxCell>
        <mxCell id="uX33xKVnWNZyPO1dEY4i-20" value="" style="edgeStyle=orthogonalEdgeStyle;rounded=0;orthogonalLoop=1;jettySize=auto;html=1;" edge="1" parent="1" source="uX33xKVnWNZyPO1dEY4i-19" target="uX33xKVnWNZyPO1dEY4i-3">
          <mxGeometry relative="1" as="geometry" />
        </mxCell>
        <mxCell id="uX33xKVnWNZyPO1dEY4i-19" value="function: calculation" style="strokeWidth=2;html=1;shape=mxgraph.flowchart.start_1;whiteSpace=wrap;" vertex="1" parent="1">
          <mxGeometry x="241" y="120" width="120" height="50" as="geometry" />
        </mxCell>
      </root>
    </mxGraphModel>
  </diagram>
</mxfile>
